<?xml version="1.0" encoding="utf-8"?>
<svg version="1.1" xmlns:xlink="http://www.w3.org/1999/xlink" width="54px" height="54px" xmlns="http://www.w3.org/2000/svg">
  <g transform="matrix(1 0 0 1 -456 -614 )">
    <path d="M 53.7471803076923 27  C 53.7471803076923 12.2512541538462  41.7487458461538 0.251814461538465  27 0.251814461538465  C 12.2512541538462 0.251814461538465  0.252819692307693 12.2512541538462  0.252819692307693 27  C 0.252819692307693 41.7487458461538  12.2522593846154 53.7471803076923  27 53.7471803076923  C 41.7477406153846 53.7471803076923  53.7471803076923 41.7487458461538  53.7471803076923 27  Z M 49.7262572307692 27  C 49.7262572307692 39.532212  39.532212 49.7262572307692  27 49.7262572307692  C 14.4687932307692 49.7262572307692  4.27374276923077 39.5312067692308  4.27374276923077 27  C 4.27374276923077 14.4687932307692  14.4687932307692 4.27273753846154  27 4.27273753846154  C 39.532212 4.27273753846154  49.7262572307692 14.467788  49.7262572307692 27  Z " fill-rule="nonzero" fill="#d9001b" stroke="none" transform="matrix(1 0 0 1 456 614 )" />
  </g>
</svg>