<?xml version="1.0" encoding="utf-8"?>
<svg version="1.1" xmlns:xlink="http://www.w3.org/1999/xlink" width="100px" height="100px" xmlns="http://www.w3.org/2000/svg">
  <g transform="matrix(1 0 0 1 -433 -591 )">
    <path d="M 100 53  L 100 47  L 94.621 47  C 93.138 24.721  75.278 6.862  53 5.378  L 53 0  L 47 0  L 47 5.378  C 24.722 6.862  6.862 24.721  5.378 47  L 0 47  L 0 53  L 5.378 53  C 6.862 75.278  24.722 93.138  47 94.621  L 47 100  L 53 100  L 53 94.621  C 75.278 93.138  93.138 75.278  94.621 53  L 100 53  Z M 88.605 53  C 87.145 71.968  71.968 87.145  53 88.605  L 53 83.825  L 47 83.825  L 47 88.605  C 28.031 87.145  12.855 71.968  11.394 53  L 16.176 53  L 16.176 47  L 11.394 47  C 12.855 28.031  28.031 12.855  47 11.394  L 47 16.176  L 53 16.176  L 53 11.394  C 71.968 12.855  87.145 28.031  88.605 47  L 83.825 47  L 83.825 53  L 88.605 53  Z " fill-rule="nonzero" fill="#d9001b" stroke="none" transform="matrix(1 0 0 1 433 591 )" />
  </g>
</svg>